<svg xmlns="http://www.w3.org/2000/svg" viewBox="0 0 40 40" width="35px" height="35px" color="#222" margin="5px">
                                                <path fill="currentColor" d="M5.9 5.9v28.2h28.2V5.9H5.9zM19.1 20l-8.3 8.3c-2-2.2-3.2-5.1-3.2-8.3s1.2-6.1 3.2-8.3l8.3 8.3zm-7.4-9.3c2.2-2 5.1-3.2 8.3-3.2s6.1 1.2 8.3 3.2L20 19.1l-8.3-8.4zM20 20.9l8.3 8.3c-2.2 2-5.1 3.2-8.3 3.2s-6.1-1.2-8.3-3.2l8.3-8.3zm.9-.9l8.3-8.3c2 2.2 3.2 5.1 3.2 8.3s-1.2 6.1-3.2 8.3L20.9 20zm8.4-10.2c-1.2-1.1-2.6-2-4.1-2.6h6.6l-2.5 2.6zm-18.6 0L8.2 7.2h6.6c-1.5.6-2.9 1.5-4.1 2.6zm-.9.9c-1.1 1.2-2 2.6-2.6 4.1V8.2l2.6 2.5zM7.2 25.2c.6 1.5 1.5 2.9 2.6 4.1l-2.6 2.6v-6.7zm3.5 5c1.2 1.1 2.6 2 4.1 2.6H8.2l2.5-2.6zm18.6 0l2.6 2.6h-6.6c1.4-.6 2.8-1.5 4-2.6zm.9-.9c1.1-1.2 2-2.6 2.6-4.1v6.6l-2.6-2.5zm2.6-14.5c-.6-1.5-1.5-2.9-2.6-4.1l2.6-2.6v6.7z">
                                                </path>
                                            </svg>