<svg xmlns="http://www.w3.org/2000/svg" viewBox="0 0 40 40" width="35px" height="35px" color="#222" margin="5px">
                                                <path fill="currentColor" d="M20 33.8c7.6 0 13.8-6.2 13.8-13.8S27.6 6.2 20 6.2 6.2 12.4 6.2 20 12.4 33.8 20 33.8zm0-26.3c6.9 0 12.5 5.6 12.5 12.5S26.9 32.5 20 32.5 7.5 26.9 7.5 20 13.1 7.5 20 7.5zm-.4 15h.5c1.8 0 3-1.1 3-3.7 0-2.2-1.1-3.6-3.1-3.6h-2.6v10.6h2.2v-3.3zm0-5.2h.4c.6 0 .9.5.9 1.7 0 1.1-.3 1.7-.9 1.7h-.4v-3.4z">
                                                </path>
                                            </svg>