<svg xmlns="http://www.w3.org/2000/svg" viewBox="0 0 40 40" width="35px" height="35px" color="#222" margin="5px">
                                                <path fill="currentColor" d="M8.7 30.7h22.7c.3 0 .6-.2.7-.6l4-25.3c-.1-.4-.3-.7-.7-.8s-.7.2-.8.6L34 8.9l-3-1.1c-2.4-.9-5.1-.5-7.2 1-2.3 1.6-5.3 1.6-7.6 0-2.1-1.5-4.8-1.9-7.2-1L6 8.9l-.7-4.3c0-.4-.4-.7-.7-.6-.4.1-.6.4-.6.8l4 25.3c.1.3.3.6.7.6zm.8-21.6c2-.7 4.2-.4 6 .8 1.4 1 3 1.5 4.6 1.5s3.2-.5 4.6-1.5c1.7-1.2 4-1.6 6-.8l3.3 1.2-3 19.1H9.2l-3-19.1 3.3-1.2zM32 32H8c-.4 0-.7.3-.7.7s.3.7.7.7h24c.4 0 .7-.3.7-.7s-.3-.7-.7-.7zm0 2.7H8c-.4 0-.7.3-.7.7s.3.6.7.6h24c.4 0 .7-.3.7-.7s-.3-.6-.7-.6zm-17.9-8.9c-1 0-1.8-.3-2.4-.6l.1-2.1c.6.4 1.4.6 2 .6.8 0 1.2-.4 1.2-1.3s-.4-1.3-1.3-1.3h-1.3l.2-1.9h1.1c.6 0 1-.3 1-1.3 0-.8-.4-1.2-1.1-1.2s-1.2.2-1.9.4l-.2-1.9c.7-.4 1.5-.6 2.3-.6 2 0 3 1.3 3 2.9 0 1.2-.4 1.9-1.1 2.3 1 .4 1.3 1.4 1.3 2.5.3 1.8-.6 3.5-2.9 3.5zm4-5.5c0-3.9 1.2-5.5 3.2-5.5s3.2 1.6 3.2 5.5-1.2 5.5-3.2 5.5-3.2-1.6-3.2-5.5zm4.1 0c0-2-.1-3.5-.9-3.5s-1 1.5-1 3.5.1 3.5 1 3.5c.8 0 .9-1.5.9-3.5zm4.5-1.4c-.9 0-1.5-.8-1.5-2.1s.6-2.1 1.5-2.1 1.5.8 1.5 2.1-.5 2.1-1.5 2.1zm0-.8c.4 0 .7-.5.7-1.2s-.2-1.2-.7-1.2-.7.5-.7 1.2.3 1.2.7 1.2z">
                                                </path>
                                            </svg>