<svg xmlns="http://www.w3.org/2000/svg" viewBox="0 0 40 40" width="35px" height="35px" color="#222" margin="5px">
                                                <path fill="currentColor" d="M36.7 31.1l-2.8-1.3-4.7-9.1 7.5-3.5c.4-.2.6-.6.4-1s-.6-.5-1-.4l-7.5 3.5-7.8-15c-.3-.5-1.1-.5-1.4 0l-7.8 15L4 15.9c-.4-.2-.8 0-1 .4s0 .8.4 1l7.5 3.5-4.7 9.1-2.8 1.3c-.4.2-.6.6-.4 1 .1.3.4.4.7.4.1 0 .2 0 .3-.1l1-.4-1.5 2.8c-.1.2-.1.5 0 .8.1.2.4.3.7.3h31.7c.3 0 .5-.1.7-.4.1-.2.1-.5 0-.8L35.1 32l1 .4c.1 0 .2.1.3.1.3 0 .6-.2.7-.4.1-.3 0-.8-.4-1zm-5.1-2.3l-9.8-4.6 6-2.8 3.8 7.4zM20 6.4L27.1 20 20 23.3 12.9 20 20 6.4zm-7.8 15l6 2.8-9.8 4.6 3.8-7.4zm22.4 13.1H5.4L7.2 31 20 25l12.8 6 1.8 3.5z">
                                                </path>
                                            </svg>