<svg xmlns="http://www.w3.org/2000/svg" viewBox="0 0 40 40" width="35px" height="35px" color="#222" margin="5px">
                                                <path fill="currentColor" d="M30.2 29.3c2.2-2.5 3.6-5.7 3.6-9.3s-1.4-6.8-3.6-9.3l3.6-3.6c.3-.3.3-.7 0-.9-.3-.3-.7-.3-.9 0l-3.6 3.6c-2.5-2.2-5.7-3.6-9.3-3.6s-6.8 1.4-9.3 3.6L7.1 6.2c-.3-.3-.7-.3-.9 0-.3.3-.3.7 0 .9l3.6 3.6c-2.2 2.5-3.6 5.7-3.6 9.3s1.4 6.8 3.6 9.3l-3.6 3.6c-.3.3-.3.7 0 .9.1.1.3.2.5.2s.3-.1.5-.2l3.6-3.6c2.5 2.2 5.7 3.6 9.3 3.6s6.8-1.4 9.3-3.6l3.6 3.6c.1.1.3.2.5.2s.3-.1.5-.2c.3-.3.3-.7 0-.9l-3.8-3.6z">
                                                </path>
                                            </svg>