<svg xmlns="http://www.w3.org/2000/svg" viewBox="0 0 40 40" width="35px" height="35px" color="#222" margin="5px">
                                                <path fill="currentColor" d="M35.1 33.6L33.2 6.2c0-.4-.3-.7-.7-.7H13.9c-.4 0-.7.3-.7.7s.3.7.7.7h18l.7 10.5H20.8c-8.8.2-15.9 7.5-15.9 16.4 0 .4.3.7.7.7h28.9c.2 0 .4-.1.5-.2s.2-.3.2-.5v-.2h-.1zm-28.8-.5C6.7 25.3 13 19 20.8 18.9h11.9l1 14.2H6.3zm11.2-6.8c0 1.2-1 2.1-2.1 2.1s-2.1-1-2.1-2.1 1-2.1 2.1-2.1 2.1 1 2.1 2.1zm6.3 0c0 1.2-1 2.1-2.1 2.1-1.2 0-2.1-1-2.1-2.1s1-2.1 2.1-2.1 2.1 1 2.1 2.1z">
                                                </path>
                                            </svg>